<?xml version="1.0" encoding="UTF-8" standalone="no"?><!DOCTYPE svg PUBLIC "-//W3C//DTD SVG 1.1//EN" "http://www.w3.org/Graphics/SVG/1.1/DTD/svg11.dtd"><svg width="100%" height="100%" viewBox="0 0 4267 2267" version="1.1" xmlns="http://www.w3.org/2000/svg" xmlns:xlink="http://www.w3.org/1999/xlink" xml:space="preserve" xmlns:serif="http://www.serif.com/" style="fill-rule:evenodd;clip-rule:evenodd;stroke-linejoin:round;stroke-miterlimit:2;"><g><path d="M1324.882,1102.789c272.462,-10.408 543.396,52.926 794.846,159.306c305.862,129.392 623.978,378.036 958.917,416.583c397.139,45.716 738.134,-82.056 1049.03,-325.058c-19.392,47.418 -56.351,108.566 -84.862,151.084c-236.225,352.238 -604.152,612.734 -1020.921,697.627c-325.966,52.875 -660.276,9.614 -962.032,-124.513c-304.263,-133.466 -587.545,-343.965 -908.044,-436.079c-260.362,-74.825 -568.565,-33.761 -814.115,71.081c-68.378,29.202 -133.735,67.068 -198.709,104.213c37.01,-48.924 76.063,-96.26 117.055,-141.904c267.16,-297.867 661.927,-550.772 1068.834,-572.34Z" style="fill:#0e0c35;fill-rule:nonzero;"/></g><g><path d="M2682.341,375.094c26.922,-4.394 110.526,-3.909 138.211,-2.568c271.482,13.152 502.332,160.729 680.329,359.046c-170.838,-56 -349.752,-61.488 -497.092,57.341c-76.104,60.725 -124.554,149.537 -134.405,246.416c-10.006,94.465 24.302,208.89 85.605,280.683c134.539,157.573 310.008,173.231 498,192.252c-166.784,29.109 -245.756,49.368 -420.018,24.839c-188.6,-33.73 -404.68,-179.152 -570.731,-277.248c-282.323,-166.784 -531.06,-264.571 -858.583,-294.175c7.221,-10.429 12.337,-16.432 20.589,-26.211c260.95,-309.441 652.241,-526.851 1058.096,-560.375Z" style="fill:#3fbbbc;fill-rule:nonzero;"/></g><g><path d="M509.312,528.282c26.726,18.093 55.959,35.7 89.163,36.804c63.458,-29.109 -45.324,-140.429 2.837,-194.707c15.596,-5.003 39.837,-11.377 52.38,0.237c56.217,55.185 86.708,137.881 135.075,201.814c63.86,84.418 124.956,169.301 220.587,220.463c37,19.795 110.33,58.239 145.71,13.1c18.247,-29.192 8.5,-69.544 -0.031,-102.562c-42.333,-163.875 -432.097,-262.425 -370.96,-439.235c15.05,-43.509 86.409,-13.894 117.045,7.386c48.243,33.503 106.699,107.4 171.797,109.639c7.85,0.464 13.76,-7.582 15.761,-15.039c25.715,-95.775 -132.373,-235.255 -54.206,-308.997c17.484,-16.483 83.201,-25.231 96.157,7.025c15.937,39.651 21.579,89.174 30.11,131.558c40.332,158.253 45.304,405.701 174.345,514.968c7.055,5.972 31.739,3.342 39.857,-1.692c49.388,-30.615 55.908,-107.607 52.854,-162.431c-5.745,-103.305 -75.289,-258.392 -11.151,-352.021c7.551,-8.809 57.682,-19.991 74.083,-13.894c21.239,7.891 30.13,13.595 40.084,34.659c31.873,67.45 -17.597,196.326 28.511,252.254c54.855,21.713 91.876,-74.145 170.992,-60.054c72.556,57.228 -59.466,165.391 -101.16,202.825c-114.146,102.47 -182.308,184.505 -217.802,334.713c-87.203,6.107 -167.145,20.331 -253.08,35.298c-73.959,-38.424 -82.159,-34.751 -162.978,-31.574c4.9,-24.705 40.765,1.836 69.018,-20.702l0.32,-11.151c-24.416,-15.607 -56.516,-6.736 -77.322,-20.826c-23.188,-15.699 -64.789,-30.863 -73.103,-58.383c-3.352,-11.12 -4.673,-13.038 -12.161,-22.714c-9.81,5.034 -18.98,9.294 -28.923,13.946c-23.013,-2.135 -26.097,-1.403 -49.306,2.259c-52.215,-78.291 -217.307,-122.213 -311.246,-169.559c-0.588,-44.478 -1.671,-88.947 -3.26,-133.404Z" style="fill:#5a8065;fill-rule:nonzero;"/></g><g><path d="M823.818,831.245c23.209,-3.662 26.293,-4.394 49.306,-2.259c9.944,-4.652 19.114,-8.912 28.923,-13.946c7.489,9.676 8.809,11.594 12.161,22.714c8.314,27.521 49.914,42.684 73.103,58.383c20.805,14.09 52.906,5.219 77.322,20.826l-0.32,11.151c-28.253,22.538 -64.118,-4.002 -69.018,20.702c-138.201,31.017 -252.997,99.55 -352.486,198.74c-25.86,25.788 -97.611,82.407 -125.802,29.625c-53.917,-100.912 149.836,-120.779 107.06,-209.127c-46.676,-30.522 -137.18,13.306 -194.645,9.149c-59.033,-4.281 -99.612,-65.397 -48.078,-111.506c30.543,-21.971 58.29,-16.855 93.98,-19.485c105.482,-7.767 235.028,65.717 332.444,23.591c12.471,-5.395 14.224,-27.201 16.05,-38.558Z" style="fill:url(#_Linear1);fill-rule:nonzero;"/></g><g><path d="M512.572,661.687c-59.92,-23.704 -112.547,-40.239 -174.984,-56.124c-39.837,-10.14 -177.532,-23.054 -192.675,-57.929c-5.498,-12.945 -5.549,-27.562 -0.144,-40.548c25.695,-61.89 85.429,2.919 127.865,-16.659c12.337,-24.117 -18.619,-95.208 -22.714,-127.164c-19.403,-151.765 110.175,-47.707 150.744,16.958c29.233,46.614 69.513,105.09 108.648,148.062c1.589,44.458 2.672,88.926 3.26,133.404Z" style="fill:#2b6687;fill-rule:nonzero;"/></g><g><path d="M3257.725,1035.205c79.725,-12.533 154.509,41.962 166.99,121.697c12.481,79.735 -42.065,154.478 -121.81,166.908c-79.663,12.409 -154.323,-42.075 -166.794,-121.728c-12.471,-79.663 41.962,-154.354 121.614,-166.877Z" style="fill:#e07458;fill-rule:nonzero;"/></g><defs><linearGradient id="_Linear1" x1="0" y1="0" x2="1" y2="0" gradientUnits="userSpaceOnUse" gradientTransform="matrix(521.80739,-303.158701,303.158701,521.80739,448.14582,1059.030415)"><stop offset="0" style="stop-color:#234047;stop-opacity:1"/><stop offset="1" style="stop-color:#6b916c;stop-opacity:1"/></linearGradient></defs></svg>