<?xml version="1.0" encoding="UTF-8" standalone="no"?>
<!DOCTYPE svg PUBLIC "-//W3C//DTD SVG 1.1//EN" "http://www.w3.org/Graphics/SVG/1.1/DTD/svg11.dtd">
<svg width="100%" height="100%" viewBox="0 0 4267 4267" version="1.1" xmlns="http://www.w3.org/2000/svg" xmlns:xlink="http://www.w3.org/1999/xlink" xml:space="preserve" xmlns:serif="http://www.serif.com/" style="fill-rule:evenodd;clip-rule:evenodd;stroke-linejoin:round;stroke-miterlimit:2;">
    <g transform="matrix(10.315043,0,0,10.315043,-3161.904265,-3160.513272)">
        <path d="M434.975,510.255C461.389,509.246 487.655,515.386 512.032,525.699C541.684,538.243 572.524,562.348 604.995,566.085C643.496,570.517 676.554,558.13 706.694,534.572C704.814,539.169 701.231,545.097 698.467,549.219C675.566,583.367 639.897,608.621 599.493,616.851C567.892,621.977 535.482,617.783 506.228,604.78C476.731,591.841 449.268,571.434 418.197,562.504C392.956,555.25 363.077,559.231 339.272,569.395C332.643,572.226 326.307,575.897 320.008,579.498C323.596,574.755 327.382,570.166 331.356,565.741C357.256,536.864 395.527,512.346 434.975,510.255Z" style="fill:rgb(14,12,53);fill-rule:nonzero;"/>
    </g>
    <g transform="matrix(10.315043,0,0,10.315043,-3161.904265,-3160.513272)">
        <path d="M566.575,439.708C569.185,439.282 577.29,439.329 579.974,439.459C606.293,440.734 628.673,455.041 645.929,474.267C629.367,468.838 612.022,468.306 597.738,479.826C590.36,485.713 585.663,494.323 584.708,503.715C583.738,512.873 587.064,523.966 593.007,530.926C606.05,546.202 623.061,547.72 641.286,549.564C625.117,552.386 617.461,554.35 600.567,551.972C582.283,548.702 561.335,534.604 545.237,525.094C517.867,508.925 493.753,499.445 462.001,496.575C462.701,495.564 463.197,494.982 463.997,494.034C489.295,464.035 527.229,442.958 566.575,439.708Z" style="fill:rgb(63,187,188);fill-rule:nonzero;"/>
    </g>
    <g transform="matrix(10.315043,0,0,10.315043,-3161.904265,-3160.513272)">
        <path d="M355.909,454.559C358.5,456.313 361.334,458.02 364.553,458.127C370.705,455.305 360.159,444.513 364.828,439.251C366.34,438.766 368.69,438.148 369.906,439.274C375.356,444.624 378.312,452.641 383.001,458.839C389.192,467.023 395.115,475.252 404.386,480.212C407.973,482.131 415.082,485.858 418.512,481.482C420.281,478.652 419.336,474.74 418.509,471.539C414.405,455.652 376.619,446.098 382.546,428.957C384.005,424.739 390.923,427.61 393.893,429.673C398.57,432.921 404.237,440.085 410.548,440.302C411.309,440.347 411.882,439.567 412.076,438.844C414.569,429.559 399.243,416.037 406.821,408.888C408.516,407.29 414.887,406.442 416.143,409.569C417.688,413.413 418.235,418.214 419.062,422.323C422.972,437.665 423.454,461.654 435.964,472.247C436.648,472.826 439.041,472.571 439.828,472.083C444.616,469.115 445.248,461.651 444.952,456.336C444.395,446.321 437.653,431.286 443.871,422.209C444.603,421.355 449.463,420.271 451.053,420.862C453.112,421.627 453.974,422.18 454.939,424.222C458.029,430.761 453.233,443.255 457.703,448.677C463.021,450.782 466.61,441.489 474.28,442.855C481.314,448.403 468.515,458.889 464.473,462.518C453.407,472.452 446.799,480.405 443.358,494.967C434.904,495.559 427.154,496.938 418.823,498.389C411.653,494.664 410.858,495.02 403.023,495.328C403.498,492.933 406.975,495.506 409.714,493.321L409.745,492.24C407.378,490.727 404.266,491.587 402.249,490.221C400.001,488.699 395.968,487.229 395.162,484.561C394.837,483.483 394.709,483.297 393.983,482.359C393.032,482.847 392.143,483.26 391.179,483.711C388.948,483.504 388.649,483.575 386.399,483.93C381.337,476.34 365.332,472.082 356.225,467.492C356.168,463.18 356.063,458.869 355.909,454.559Z" style="fill:rgb(90,128,101);fill-rule:nonzero;"/>
    </g>
    <g transform="matrix(10.315043,0,0,10.315043,-3161.904265,-3160.513272)">
        <path d="M386.399,483.93C388.649,483.575 388.948,483.504 391.179,483.711C392.143,483.26 393.032,482.847 393.983,482.359C394.709,483.297 394.837,483.483 395.162,484.561C395.968,487.229 400.001,488.699 402.249,490.221C404.266,491.587 407.378,490.727 409.745,492.24L409.714,493.321C406.975,495.506 403.498,492.933 403.023,495.328C389.625,498.335 378.496,504.979 368.851,514.595C366.344,517.095 359.388,522.584 356.655,517.467C351.428,507.684 371.181,505.758 367.034,497.193C362.509,494.234 353.735,498.483 348.164,498.08C342.441,497.665 338.507,491.74 343.503,487.27C346.464,485.14 349.154,485.636 352.614,485.381C362.84,484.628 375.399,491.752 384.843,487.668C386.052,487.145 386.222,485.031 386.399,483.93Z" style="fill:url(#_Linear1);fill-rule:nonzero;"/>
    </g>
    <g transform="matrix(10.315043,0,0,10.315043,-3161.904265,-3160.513272)">
        <path d="M356.225,467.492C350.416,465.194 345.314,463.591 339.261,462.051C335.399,461.068 322.05,459.816 320.582,456.435C320.049,455.18 320.044,453.763 320.568,452.504C323.059,446.504 328.85,452.787 332.964,450.889C334.16,448.551 331.159,441.659 330.762,438.561C328.881,423.848 341.443,433.936 345.376,440.205C348.21,444.724 352.115,450.393 355.909,454.559C356.063,458.869 356.168,463.18 356.225,467.492Z" style="fill:rgb(43,102,135);fill-rule:nonzero;"/>
    </g>
    <g transform="matrix(10.315043,0,0,10.315043,-3161.904265,-3160.513272)">
        <path d="M622.356,503.703C630.085,502.488 637.335,507.771 638.545,515.501C639.755,523.231 634.467,530.477 626.736,531.682C619.013,532.885 611.775,527.603 610.566,519.881C609.357,512.158 614.634,504.917 622.356,503.703Z" style="fill:rgb(224,116,88);fill-rule:nonzero;"/>
    </g>
    <defs>
        <linearGradient id="_Linear1" x1="0" y1="0" x2="1" y2="0" gradientUnits="userSpaceOnUse" gradientTransform="matrix(50.58703,-29.38996,29.38996,50.58703,349.97916,506.01279)"><stop offset="0" style="stop-color:rgb(35,64,71);stop-opacity:1"/><stop offset="1" style="stop-color:rgb(107,145,108);stop-opacity:1"/></linearGradient>
    </defs>
</svg>
