<?xml version="1.0" encoding="utf-8" ?><svg xmlns="http://www.w3.org/2000/svg" xmlns:xlink="http://www.w3.org/1999/xlink" width="286" height="286" viewBox="0 0 286 286"><path fill="#0E0A2E" transform="scale(0.279297 0.279297)" d="M830.076 425.344L830.075 566.843L830.07 612.394C830.082 624.566 828.243 643.992 836.034 654.463C837.575 656.536 843.86 658.034 845.865 661.017L845.792 662.135C843.501 663.167 791.913 662.699 783.777 662.977C789.991 656.404 790.681 653.379 791.546 644.468C785.347 654.449 777.242 662.248 765.522 664.908C750.555 668.306 734.335 664.276 730.655 647.269C729.507 641.968 729.539 636.394 729.516 631.054C719.731 647.437 709.269 660.257 689.812 665.397C678.157 668.477 662.944 666.695 652.522 660.351C643.004 654.575 636.203 645.218 633.649 634.381C630.996 622.855 633.868 608.371 640.389 598.457C653.81 578.054 679.137 568.414 701.123 560.181C708.311 557.442 716.936 555.026 722.738 549.793C729.887 543.346 731.596 530.56 729.461 521.5C725.07 502.864 712.245 493.894 693.548 495.116L693.072 493.971C693.215 493.942 693.359 493.913 693.503 493.885C722.976 490.239 763.214 501.945 767.493 536.247C768.875 547.32 768.741 557.859 768.759 568.913L768.733 610.889C768.703 619.728 766.845 637.848 773.277 644.628C776.669 648.204 786.861 645.936 789.401 641.48C793.386 632.474 791.973 611.081 791.968 601.681L791.964 546.553L792.009 499.636C792.017 487.915 794.03 461.957 784.836 452.319C783.742 451.172 778.984 450.202 777.129 448.232L777.049 447.344C778.079 446.347 791.343 444.115 794.086 443.282C807.983 439.063 818.09 433.197 830.076 425.344ZM680.371 636.422C695.159 648.706 720.709 644.413 729.554 623.349C730.259 621.67 729.936 607.509 729.934 604.709C729.952 591.047 729.849 577.385 729.627 563.724C729.61 561.417 730.164 550.797 729.21 549.372C725.013 555.65 721.342 557.156 714.195 560.35C691.84 570.339 669.953 589.432 671.232 616.042C671.649 624.72 674.593 630.642 680.371 636.422Z"/><path fill="#0E0A2E" transform="scale(0.279297 0.279297)" d="M408.822 494.201C429.357 492.137 449.918 497.875 466.416 510.276C484.481 523.892 496.26 544.245 499.066 566.693C502.312 590.718 495.795 615.042 480.971 634.225C467.29 651.733 448.059 662.199 426.123 664.921C404.483 667.526 382.693 661.456 365.517 648.037C329.405 619.491 321.128 561.751 350.363 525.668C364.999 507.956 385.977 496.664 408.822 494.201ZM433.077 660.425C463.672 657.879 463.226 611.243 461.222 589.509C458.523 560.229 449.111 528.417 426.813 507.878C419.735 501.523 410.145 497.774 400.512 498.605C391.086 500.846 383.979 504.278 379.011 513.268C365.996 536.817 370.292 570.841 375.809 595.951C381 619.582 402.944 665.121 433.077 660.425Z"/><path fill="#2B6B83" transform="scale(0.279297 0.279297)" d="M436.687 347.699C443.683 346.842 458.374 347.984 465.361 348.942C482.215 351.168 498.63 355.957 514.037 363.144C540.406 375.32 567.249 394.885 596.058 397.958C629.228 401.495 661.766 390.396 687.486 369.657C686.964 370.808 686.469 371.72 685.854 372.825C666.484 407.005 634.437 432.187 596.645 442.922C562.657 451.916 523.995 443.931 493.14 427.927C471.324 416.61 447.929 401.444 423.965 395.112C394.93 387.44 362.666 394.785 337.156 409.835C345.847 399.707 353.698 390.146 364.075 381.643C385.572 364.025 408.637 350.378 436.687 347.699Z"/><path fill="#0E0A2E" transform="scale(0.279297 0.279297)" d="M331.082 614.818C326.615 624.723 320.51 633.805 313.023 641.681C299.235 656.342 281.694 665.021 261.498 665.357C240.876 665.989 222.184 658.661 207.199 644.54C173.766 613.033 173.657 551.912 205.649 519.346C221.898 502.806 241.838 494.464 265.063 493.899C289.231 493.31 324.36 504.178 325.493 533.184C325.943 546.745 312.894 554.932 300.434 554.209C290.652 553.641 285.274 550.552 278.705 543.341C280.826 541.722 283.266 540.259 285.223 538.51C295.384 529.429 290.56 514.039 282.369 505.758C276.581 500.005 268.727 496.815 260.566 496.904C228.577 497.18 218.49 540.616 219.594 565.565C220.566 587.535 224.694 606.256 240.896 622.1C260.535 641.306 289.223 642.332 311.42 627.031C318.094 622.441 322.72 617.747 328.308 611.947C330.411 612.646 329.695 612.281 331.082 614.818Z"/><path fill="#0E0A2E" transform="scale(0.279297 0.279297)" d="M606.478 493.198C633 491.778 641.456 509.06 627.088 530.941C625.414 533.49 623.743 536.94 621.015 538.462C618.914 537.008 617.697 529.064 614.401 526.145C608.885 521.258 597.433 518.797 590.373 519.087C575.509 519.698 564.19 524.294 554.014 534.832C553.674 540.101 553.897 547.483 553.909 552.902L553.937 583.674C553.947 601.788 553.627 620.403 554.458 638.463C553.924 641.935 556.851 648.23 557.263 650.581C558.544 657.885 570.577 657.264 569.446 661.936C566.823 663.213 518.988 662.574 511.625 662.559C508.88 662.599 500.032 663.476 498.634 661.272C498.804 660.838 498.974 660.405 499.144 659.971C517.162 654.314 515.473 648.561 515.35 626.671L515.171 597.164L515.157 560.993C515.162 549.545 516.186 538.104 512.127 527.285C509.185 519.442 502.172 521.518 498.915 517.226L499.076 516.349C501.911 515.177 508.406 514.395 511.742 513.783C528.472 510.713 539.759 501.457 554.047 493.966C553.967 505.811 553.953 517.657 554.005 529.502C554.75 528.459 555.514 527.429 556.299 526.415C569.221 509.75 584.956 495.876 606.478 493.198Z"/><path fill="#3CBDC1" transform="scale(0.279297 0.279297)" d="M556.792 284.189C588.234 280.494 609.922 294.293 631.489 314.998C629.594 314.677 626.782 314.168 624.982 313.644C605.517 307.974 580.984 316.658 576.331 338.532C574.589 347.05 576.287 355.911 581.054 363.182C587.806 373.574 599.868 379.747 611.884 381.567C616.697 382.297 621.287 382.361 626.05 383.473C615.854 385.325 604.225 387.197 593.88 385.722C572.886 384.093 546.159 363.326 526.322 353.381C507.301 343.657 486.682 337.442 465.455 335.036C465.815 334.52 466.366 333.71 466.774 333.239C489.88 306.595 522.042 288.012 556.792 284.189Z"/><path fill="#5E8265" transform="scale(0.279297 0.279297)" d="M378.143 300.544C382.453 293.192 374.62 290.666 376.657 284.85C378.493 282.724 381.722 281.846 383.664 284.853C392.298 298.227 403.735 318.783 420.011 323.512C429.383 326.235 427.61 309.776 422.234 306.622C413.133 297.993 402.71 291.554 393.645 282.97C390.629 279.051 393.132 272.984 398.017 272.526C404.041 271.962 413.599 288.083 418.761 283.971C426.503 277.805 401.246 256.475 420.449 254.772C421.459 254.683 423.445 255.431 424.008 256.291C427.779 272.634 429.045 289.981 435.608 305.803C440.957 318.697 449.601 315.619 449.846 301.673C450.015 292.04 439.862 267.254 453.668 267.061C466.69 266.879 454.595 291.794 462.826 293.31C466.079 292.378 477.198 280.099 478.006 292.044C478.312 296.564 468.007 304.131 464.365 307.639C461.619 310.313 459.072 313.183 456.743 316.227C452.008 322.458 450.171 326.383 448.356 333.842C439.731 334.721 435.104 335.138 426.646 336.923C416.836 332.528 415.537 333.108 405.016 335.714C400.798 338.635 394.795 340.115 389.76 343.963C385.697 347.068 373.611 362.656 370.214 353.019C367.016 343.943 384.679 344.862 379.095 334.723L379.747 334.331C379.253 333.024 379.034 329.547 379.54 328.893C381.626 326.192 387.567 331.042 391.964 328.661C405.902 324.211 388.472 316.661 383.594 314.664C379.978 310.517 367.84 312.353 370.419 302.224C370.915 300.275 369.516 300.206 370.028 298.746C372.894 300.695 374.789 302.391 378.143 300.544Z"/><path fill="#3A5953" transform="scale(0.279297 0.279297)" d="M379.747 334.331C383.878 338.8 378.987 342.574 383.481 346.824C385.984 346.554 400.676 333.67 405.016 335.714C400.798 338.635 394.795 340.115 389.76 343.963C385.697 347.068 373.611 362.656 370.214 353.019C367.016 343.943 384.679 344.862 379.095 334.723L379.747 334.331Z"/><path fill="#E6755F" transform="scale(0.279297 0.279297)" d="M693.072 493.971L693.548 495.116C677.341 499.16 689.034 509.342 694.068 517.125C699.258 525.149 698.814 535.619 692.812 543.015C680.367 558.348 650.4 552.779 648.499 531.674C647.801 524.267 650.11 516.891 654.905 511.203C664.276 499.952 678.941 495.238 693.072 493.971Z"/><path fill="#D2AF97" transform="scale(0.279297 0.279297)" d="M389.83 706.167C400.56 705.716 405.953 709.157 408.669 719.478C406.781 728.903 402.086 731.621 392.92 732.759C385.033 733.495 375.389 730.426 374.201 721.445C373.763 718.062 374.721 714.646 376.855 711.985C380.379 707.538 384.661 706.725 389.83 706.167ZM394.267 728.405C397.51 727.637 400.481 727.053 402.426 724.011C403.465 722.38 403.786 720.392 403.313 718.516C401.54 711.346 394.625 710.123 388.386 710.562C385.099 711.543 381.634 712.878 379.903 716.14C379.028 717.813 378.87 719.771 379.467 721.563C381.547 727.917 388.625 728.707 394.267 728.405Z"/><path fill="#2B6B83" transform="scale(0.279297 0.279297)" d="M383.594 314.664C374.111 312.145 368.235 307.404 358.317 304.606C353.468 303.238 340.384 301.938 338.049 299.593C337.218 296.56 338.836 292.552 342.508 293.063C345.354 293.46 346.73 295.048 349.437 293.424C351.648 288.86 343.91 283.558 347.335 278.412C347.891 277.577 349.639 275.858 350.622 276.119C361.974 279.131 364.891 300.545 378.143 300.544C374.789 302.391 372.894 300.695 370.028 298.746C369.516 300.206 370.915 300.275 370.419 302.224C367.84 312.353 379.978 310.517 383.594 314.664Z"/><path fill="#D2AF97" transform="scale(0.279297 0.279297)" d="M557.478 706.693C564.408 706.67 571.909 706.204 578.745 706.818C583.85 707.277 588.107 711.438 586.787 716.769C585.981 720.023 582.981 721.61 580.302 723.239C581.833 725.412 586.785 730.384 585.934 732.416L583.2 732.77C579.643 732.382 576.772 725.669 575.061 722.592C570.871 722.478 566.273 722.644 562.052 722.712C562.07 725.391 562.459 729.594 561.571 731.765C560.101 732.699 560.499 732.386 558.313 732.169C556.712 730.065 557.36 710.516 557.478 706.693ZM562.019 718.57C566.173 718.605 577.975 719.041 581.07 717.902C584.714 707.584 568.295 710.731 561.997 710.684L562.019 718.57Z"/><path fill="#D2AF97" transform="scale(0.279297 0.279297)" d="M503.082 707.388C511.949 707.08 511.431 713.155 515.605 719.841C517.09 722.221 522.927 730.173 521.98 732.206C517.281 733.809 516.672 729.997 514.59 726.856C512.751 726.04 510.45 726.341 508.375 726.399L497.576 726.351L494.701 731.903C492.961 731.735 490.929 731.865 489.15 731.923C492.125 725.762 499.392 713.199 503.082 707.388ZM499.496 722.338L505.625 722.263C507.792 722.317 510.255 722.316 512.391 722.465C511.07 720.36 507.118 713.323 505.602 712.266C503.238 715.575 501.625 718.956 499.496 722.338Z"/><path fill="#D2AF97" transform="scale(0.279297 0.279297)" d="M428.823 706.595C432.591 706.361 448.831 705.393 446.744 712.716C442.894 714.572 431.955 706.174 425.869 713.138L425.955 714.104C429.488 717.75 448.572 715.132 449.11 723.738C449.508 730.096 442.956 732.219 437.622 732.69C432.705 733.722 424.659 731.487 421.319 727.695C420.852 725.774 420.626 726.502 421.36 725.219C424.662 724.667 433.149 729.838 437.677 728.572C439.767 727.988 444.443 727.488 443.75 724.066C440.056 720.82 432.934 721.843 428.583 720.506C418.12 717.291 418.558 709.862 428.823 706.595Z"/><path fill="#D2AF97" transform="scale(0.279297 0.279297)" d="M676.551 706.511C677.92 706.477 678.337 706.534 679.705 706.714C682.693 708.745 692.004 727.041 694.808 731.534L694.312 732.001C692.22 732.083 691.666 732.192 689.675 731.714C688.029 730.381 687.279 728.103 686.354 726.09L681.008 726.159L669.865 726.521L667.064 731.451C665.303 731.586 663.233 731.939 661.462 732.193C663.872 727.779 673.745 708.517 676.551 706.511ZM671.727 722.565L677.875 722.534L684.386 722.455C682.497 719.173 679.974 714.481 677.847 711.493C675.471 715.33 673.783 718.569 671.727 722.565Z"/><path fill="#D2AF97" transform="scale(0.279297 0.279297)" d="M634.588 706.582C639.726 706.157 648.106 706.371 651.459 710.865C651.92 712.574 651.921 712.447 651.31 714.11C648.414 716.439 647.085 712.5 644.019 711.537C638.926 709.937 631.069 710.817 627.819 715.469C626.693 717.103 626.27 719.121 626.646 721.07C627.989 728.025 637.066 728.987 642.758 727.941C646.736 726.854 646.61 725.962 649.853 724.325C654.08 729.129 648.941 730.101 644.615 731.843C636.61 735.067 624.836 731.79 622.113 722.825C621.225 719.943 621.555 716.822 623.028 714.19C625.534 709.653 629.913 707.865 634.588 706.582Z"/><path fill="#D2AF97" transform="scale(0.279297 0.279297)" d="M344.013 706.568C348.816 706.259 362.077 706.489 361.666 713.454C358.84 715.212 344.97 706.167 340.249 712.516C332.736 722.617 340.583 729.095 351.798 728.357C354.833 727.493 356.828 726.29 359.748 725.114C361.133 725.675 361.168 726.029 361.996 727.293L361.754 728.231C354.738 735.285 336.054 734.801 332.515 723.191C331.542 719.964 331.918 716.479 333.556 713.533C335.914 709.347 339.65 707.744 344.013 706.568Z"/><path fill="#3A5953" transform="scale(0.279297 0.279297)" d="M379.095 334.723C371.811 333.355 370.614 335.645 363.516 336.733C358.021 337.576 354.498 328.714 358.277 326.779C368.103 321.748 381.912 328.356 391.964 328.661C387.567 331.042 381.626 326.192 379.54 328.893C379.034 329.547 379.253 333.024 379.747 334.331L379.095 334.723Z"/><path fill="#D2AF97" transform="scale(0.279297 0.279297)" d="M459.057 707.029C462.798 707.144 483.908 706.781 485.477 707.663C485.786 709.031 485.698 708.962 485.181 710.295C482.9 712.391 477.908 711.634 474.55 711.531C474.647 714.682 474.609 718.004 474.624 721.171C474.563 724.604 475.522 728.608 474.032 731.381C472.302 732.298 472.896 732.027 470.661 731.866C469.243 729.867 469.919 715.185 469.953 711.519C466.119 711.446 462.924 712.343 459.655 710.953C458.567 709.25 458.957 709.507 459.057 707.029Z"/><path fill="#D2AF97" transform="scale(0.279297 0.279297)" d="M602.128 707.107C603.988 706.978 604.331 706.887 606.199 707.347C606.843 709.529 606.752 729.303 606.381 731.739C604.843 731.922 604.146 732.139 602.675 731.625C601.864 726.462 602.675 714.142 602.183 707.753L602.128 707.107Z"/><path transform="scale(0.279297 0.279297)" d="M328.308 611.947C330.113 609.817 332.761 606.51 334.756 604.732C333.543 608.879 332.829 610.881 331.082 614.818C329.695 612.281 330.411 612.646 328.308 611.947Z"/></svg>